<?xml version="1.0" encoding="UTF-8"?>
<svg width="276px" height="169px" viewBox="0 0 276 169" version="1.1" xmlns="http://www.w3.org/2000/svg" xmlns:xlink="http://www.w3.org/1999/xlink">
    <!-- Generator: Sketch 63.1 (92452) - https://sketch.com -->
    <title>Izquierda Copy</title>
    <desc>Created with Sketch.</desc>
    <defs>
        <polygon id="path-1" points="0 0.00031155922 299.241925 0.00031155922 299.241925 109.777 0 109.777"></polygon>
    </defs>
    <g id="Stories-maquetados" stroke="none" stroke-width="1" fill="none" fill-rule="evenodd">
        <g id="Izquierda-Copy" transform="translate(-14.000000, -14.217344)">
            <g id="Forma1-Copy" transform="translate(160.000000, 110.000000) rotate(-23.000000) translate(-160.000000, -110.000000) translate(10.000000, 55.000000)">
                <mask id="mask-2" fill="white">
                    <use xlink:href="#path-1"></use>
                </mask>
                <g id="Clip-2"></g>
                <path d="M297.7655,38.7687 C301.3565,29.3427 298.2275,17.7137 290.2205,11.5157 C284.7495,7.2797 277.7235,5.3777 270.8065,5.2347 C259.3465,4.9977 248.3015,9.2207 237.4985,12.5047 C226.4485,15.8647 215.3165,19.0267 203.9935,21.3417 C184.7165,25.2827 165.5295,24.8557 146.3375,20.6947 C112.2725,13.3097 78.6165,-5.0223 42.8525,1.3067 C41.7775,1.4967 40.7045,1.7067 39.6385,1.9417 C39.2785,2.0207 38.9185,2.1017 38.5605,2.1857 C20.4945,6.3937 3.0865,19.7047 0.3155,39.1797 C-1.8205,54.1877 7.1435,67.5847 19.4545,75.1857 C47.9845,92.7997 80.1615,106.4407 113.8215,109.2397 C143.0735,111.6717 172.2305,105.6457 199.5215,95.3297 C221.9885,86.8357 243.5835,75.9377 264.9505,65.0217 C277.0135,58.8577 291.9735,52.8007 297.5425,39.3297 C297.6195,39.1437 297.6945,38.9557 297.7655,38.7687" id="Fill-1" fill-opacity="0.242925044" fill="#142A5E" mask="url(#mask-2)"></path>
            </g>
            <g id="planeta" transform="translate(78.259780, 120.217344)" fill-rule="nonzero">
                <circle id="Oval" fill="#407BFF" cx="27.7773134" cy="19.23" r="19.23"></circle>
                <circle id="Oval" fill="#FFFFFF" opacity="0.3" cx="27.7773134" cy="19.23" r="19.23"></circle>
                <path d="M39.9273134,4.34 C31.1575657,1.73324004 21.7658741,5.66954298 17.4754803,13.750149 C13.1850864,21.830755 15.1853463,31.8156091 22.2573134,37.62 C31.0418803,40.2462811 40.4587937,36.3054006 44.7544344,28.2051884 C49.0500752,20.1049762 47.0295242,10.0986697 39.9273134,4.3 L39.9273134,4.34 Z" id="Path" fill="#407BFF" opacity="0.4"></path>
                <path d="M9.42731343,25 C-11.1026866,34.66 4.20731343,42.11 33.1373134,31.71 C59.9273134,22.08 70.1373134,9.94 46.1373134,13.71 C47.4273134,18.76 13.8773134,31.83 9.42731343,25 Z" id="Path" fill="#407BFF"></path>
            </g>
            <path d="M158.852878,126.526571 C158.541818,126.461594 158.219698,126.440856 157.903108,126.436709 C157.793892,126.435326 157.683293,126.432561 157.574076,126.429796 C157.569929,126.153299 157.557486,125.876801 157.538131,125.601686 C157.502187,125.144082 157.441357,124.372654 156.904952,124.217815 C156.824767,124.194313 156.588362,125.058368 156.57039,125.145465 C156.50403,125.455142 156.484675,125.777262 156.479145,126.095234 C156.477763,126.204451 156.474998,126.313667 156.472233,126.424267 C156.210943,126.429796 155.94827,126.440856 155.688362,126.472654 C155.233523,126.526571 154.417855,126.547308 154.260251,127.090626 C154.236749,127.169428 155.099422,127.405833 155.187901,127.423806 C155.601265,127.512285 156.039514,127.517815 156.466703,127.524727 C156.472233,127.7874 156.484675,128.04869 156.516472,128.309981 C156.57039,128.763437 156.589744,129.579105 157.133062,129.736709 C157.211864,129.760211 157.44827,128.897538 157.467625,128.810442 C157.556104,128.395695 157.560251,127.958829 157.567164,127.53164 C157.845044,127.527492 158.120159,127.51505 158.396657,127.494313 C158.852878,127.45975 159.624307,127.397538 159.780528,126.861133 C159.802648,126.782331 158.938592,126.544543 158.852878,126.526571" id="Fill-57-Copy-4" fill="#D5D5FD"></path>
            <path d="M146.782993,152.248998 C145.864523,152.560786 146.254642,154.09669 147.1854,154.018359 C147.377388,154.001464 147.563232,153.910846 147.707607,153.778758 L147.808977,153.718858 C148.552354,153.130607 147.472614,152.015541 146.782993,152.248998" id="Fill-43-Copy-3" fill="#FFFFFF"></path>
            <path d="M132.782993,116.248998 C131.864523,116.560786 132.254642,118.09669 133.1854,118.018359 C133.377388,118.001464 133.563232,117.910846 133.707607,117.778758 L133.808977,117.718858 C134.552354,117.130607 133.472614,116.015541 132.782993,116.248998" id="Fill-43-Copy-4" fill="#FFFFFF"></path>
            <path d="M188.782993,123.248998 C187.864523,123.560786 188.254642,125.09669 189.1854,125.018359 C189.377388,125.001464 189.563232,124.910846 189.707607,124.778758 L189.808977,124.718858 C190.552354,124.130607 189.472614,123.015541 188.782993,123.248998" id="Fill-43-Copy-5" fill="#FFFFFF"></path>
            <path d="M106.852878,177.526571 C106.541818,177.461594 106.219698,177.440856 105.903108,177.436709 C105.793892,177.435326 105.683293,177.432561 105.574076,177.429796 C105.569929,177.153299 105.557486,176.876801 105.538131,176.601686 C105.502187,176.144082 105.441357,175.372654 104.904952,175.217815 C104.824767,175.194313 104.588362,176.058368 104.57039,176.145465 C104.50403,176.455142 104.484675,176.777262 104.479145,177.095234 C104.477763,177.204451 104.474998,177.313667 104.472233,177.424267 C104.210943,177.429796 103.94827,177.440856 103.688362,177.472654 C103.233523,177.526571 102.417855,177.547308 102.260251,178.090626 C102.236749,178.169428 103.099422,178.405833 103.187901,178.423806 C103.601265,178.512285 104.039514,178.517815 104.466703,178.524727 C104.472233,178.7874 104.484675,179.04869 104.516472,179.309981 C104.57039,179.763437 104.589744,180.579105 105.133062,180.736709 C105.211864,180.760211 105.44827,179.897538 105.467625,179.810442 C105.556104,179.395695 105.560251,178.958829 105.567164,178.53164 C105.845044,178.527492 106.120159,178.51505 106.396657,178.494313 C106.852878,178.45975 107.624307,178.397538 107.780528,177.861133 C107.802648,177.782331 106.938592,177.544543 106.852878,177.526571" id="Fill-57-Copy-5" fill="#D5D5FD"></path>
        </g>
    </g>
</svg>