<?xml version="1.0" encoding="UTF-8"?>
<svg width="261px" height="216px" viewBox="0 0 261 216" version="1.1" xmlns="http://www.w3.org/2000/svg" xmlns:xlink="http://www.w3.org/1999/xlink">
    <!-- Generator: Sketch 63.1 (92452) - https://sketch.com -->
    <title>Derecha Copy</title>
    <desc>Created with Sketch.</desc>
    <defs>
        <polygon id="path-1" points="0 0 301.841 0 301.841 133.296915 0 133.296915"></polygon>
    </defs>
    <g id="Stories-maquetados" stroke="none" stroke-width="1" fill="none" fill-rule="evenodd">
        <g id="Derecha-Copy" transform="translate(-31.470865, -11.617868)">
            <g id="Forma2-Copy" transform="translate(166.000000, 127.000000) rotate(-26.000000) translate(-166.000000, -127.000000) translate(15.000000, 60.000000)">
                <mask id="mask-2" fill="white">
                    <use xlink:href="#path-1"></use>
                </mask>
                <g id="Clip-2"></g>
                <path d="M296.1464,13.6124 C296.0094,13.4194 295.8704,13.2264 295.7274,13.0354 C280.6754,-7.1636 248.2014,-0.1596 228.8694,9.1814 C216.0174,15.3904 205.6064,25.3634 193.7084,33.0704 C180.4534,41.6564 165.3684,44.8884 149.6844,44.7094 C135.9684,44.5534 122.5004,41.8154 108.9294,40.3634 C94.9964,38.8734 80.9664,38.2994 66.9574,38.6594 C50.9134,39.0724 33.6204,40.3474 19.1304,47.9654 C2.9264,56.4854 -4.7906,73.6384 3.1464,90.6484 C10.2994,105.9774 25.5974,118.5384 41.1734,124.6414 C62.3644,132.9424 85.8544,134.1884 108.3514,132.8214 C132.4794,131.3584 156.6514,129.5334 180.4704,125.1964 C185.6504,124.2534 190.7824,123.1254 195.9304,122.0284 C235.7514,113.5364 281.7034,95.5164 297.4234,54.2884 C299.8024,48.0504 301.2794,41.4804 301.7544,34.8204 C302.2784,27.4874 300.4354,19.6714 296.1464,13.6124" id="Fill-1" fill-opacity="0.640625" fill="#1F408C" mask="url(#mask-2)"></path>
            </g>
            <g id="Group" transform="translate(98.730645, 82.617868)">
                <g id="cohete" transform="translate(40.000000, 6.000000)" fill-rule="nonzero">
                    <path d="M14.91,33.89 L21.8,40.78 L41.08,22.61 C34.44,20.07 21.51,27.27 14.91,33.89 Z" id="Path" fill="#263238"></path>
                    <path d="M38.93,57.89 L32,51 L50.17,31.71 C52.74,38.35 45.53,51.29 38.93,57.89 Z" id="Path" fill="#263238"></path>
                    <path d="M65.29,14.49 L72.8,0 L58.32,7.52 C53.668109,9.9158381 49.3705861,12.9446326 45.55,16.52 L20.86,39.82 L33,52 L56.24,27.31 C59.8373033,23.4776152 62.883238,19.1628216 65.29,14.49 L65.29,14.49 Z" id="Path" fill="#407BFF"></path>
                    <path d="M65.29,14.49 L72.8,0 L58.32,7.52 C53.668109,9.9158381 49.3705861,12.9446326 45.55,16.52 L20.86,39.82 L33,52 L56.24,27.31 C59.8373033,23.4776152 62.883238,19.1628216 65.29,14.49 L65.29,14.49 Z" id="Path" fill="#FFFFFF" opacity="0.6"></path>
                    <circle id="Oval" fill="#FFFFFF" cx="49.86" cy="22.94" r="5.08"></circle>
                    <circle id="Oval" fill="#407BFF" cx="49.86" cy="22.94" r="3.26"></circle>
                    <polygon id="Path" fill="#407BFF" opacity="0.3" points="37.09 47.59 25.21 35.71 34.94 26.56 46.25 37.87"></polygon>
                    <path d="M17.6,44.76 C8.71,45.48 5.76,51.17 4.75,58.76 C4.24,62.62 4.01,66.53 0.75,68.76 C0.341197652,69.0287792 0.161565392,69.5370141 0.31067568,70.0029838 C0.459785968,70.4689534 0.901103369,70.7784845 1.39,70.76 C13.33,70.39 18.9,64.54 19.6,62.1 C19.4134534,63.3781146 19.0778331,64.6299783 18.6,65.83 C18.4292813,66.2652251 18.5551195,66.7608505 18.9127819,67.0619207 C19.2704443,67.362991 19.7802706,67.4024502 20.18,67.16 C23.53,65.06 27.73,61.16 28.01,54.93 C25.59,51.44 17.6,44.76 17.6,44.76 Z" id="Path" fill="#407BFF"></path>
                    <path d="M17.6,44.76 C8.71,45.48 5.76,51.17 4.75,58.76 C4.24,62.62 4.01,66.53 0.75,68.76 C0.341197652,69.0287792 0.161565392,69.5370141 0.31067568,70.0029838 C0.459785968,70.4689534 0.901103369,70.7784845 1.39,70.76 C13.33,70.39 18.9,64.54 19.6,62.1 C19.4134534,63.3781146 19.0778331,64.6299783 18.6,65.83 C18.4292813,66.2652251 18.5551195,66.7608505 18.9127819,67.0619207 C19.2704443,67.362991 19.7802706,67.4024502 20.18,67.16 C23.53,65.06 27.73,61.16 28.01,54.93 C25.59,51.44 17.6,44.76 17.6,44.76 Z" id="Path" fill="#FFFFFF" opacity="0.2"></path>
                    <polygon id="Path" fill="#407BFF" points="29.43 57.62 15.18 43.37 22.77 41.73 31.07 50.03"></polygon>
                </g>
                <path d="M4.59309815,61.3092264 C4.28203825,61.2442495 3.95991843,61.2235122 3.64332857,61.2193647 C3.53411198,61.2179822 3.4235129,61.2152172 3.31429631,61.2124523 C3.31014884,60.9359546 3.29770645,60.6594569 3.27835161,60.3843417 C3.24240691,59.926738 3.18157742,59.1553094 2.64517189,59.0004707 C2.56498755,58.9769684 2.32858202,59.8410237 2.31060967,59.9281205 C2.24425023,60.2377979 2.22489539,60.5599177 2.21936543,60.87789 C2.21798295,60.9871066 2.21521797,61.0963232 2.21245299,61.2069223 C1.95116267,61.2124523 1.68848986,61.2235122 1.42858202,61.2553094 C0.973743314,61.3092264 0.158075112,61.3299638 0.000471425089,61.8732817 C-0.0230308791,61.9520836 0.839641932,62.1884891 0.928121195,62.2064615 C1.34148525,62.2949407 1.7797341,62.3004707 2.20692304,62.3073831 C2.21245299,62.5700559 2.22489539,62.8313463 2.25669262,63.0926366 C2.31060967,63.5460928 2.32996451,64.361761 2.87328248,64.5193647 C2.95208433,64.542867 3.18848986,63.6801942 3.2078447,63.5930974 C3.29632396,63.1783509 3.30047143,62.7414845 3.30738387,62.3142956 C3.58526405,62.3101481 3.86037926,62.2977057 4.13687696,62.2769684 C4.59309815,62.2424062 5.36452672,62.1801942 5.52074792,61.6437887 C5.54286774,61.5649868 4.67881244,61.3271988 4.59309815,61.3092264" id="Fill-57-Copy" fill="#D5D5FD"></path>
                <path d="M63.5930982,2.30922645 C63.2820382,2.24424949 62.9599184,2.22351216 62.6433286,2.2193647 C62.534112,2.21798221 62.4235129,2.21521723 62.3142963,2.21245226 C62.3101488,1.93595456 62.2977064,1.65945686 62.2783516,1.38434166 C62.2424069,0.926737969 62.1815774,0.155309398 61.6451719,0.000470688282 C61.5649876,-0.0230316159 61.328582,0.841023684 61.3106097,0.928120458 C61.2442502,1.23779788 61.2248954,1.55991769 61.2193654,1.87789004 C61.2179829,1.98710663 61.215218,2.09632322 61.212453,2.2069223 C60.9511627,2.21245226 60.6884899,2.22351216 60.428582,2.2553094 C59.9737433,2.30922645 59.1580751,2.32996378 59.0004714,2.87328175 C58.9769691,2.95208359 59.8396419,3.18848912 59.9281212,3.20646147 C60.3414852,3.29494073 60.7797341,3.30047069 61.206923,3.30738313 C61.212453,3.57005594 61.2248954,3.83134626 61.2566926,4.09263659 C61.3106097,4.54609281 61.3299645,5.36176101 61.8732825,5.5193647 C61.9520843,5.542867 62.1884899,4.68019419 62.2078447,4.59309742 C62.296324,4.17835087 62.3004714,3.74148451 62.3073839,3.31429557 C62.5852641,3.31014811 62.8603793,3.29770571 63.136877,3.27696838 C63.5930982,3.24240617 64.3645267,3.18019419 64.5207479,2.64378866 C64.5428677,2.56498682 63.6788124,2.3271988 63.5930982,2.30922645" id="Fill-57-Copy-2" fill="#D5D5FD"></path>
            </g>
            <g id="luna" transform="translate(204.730645, 131.617868)" fill-rule="nonzero">
                <circle id="Oval" fill="#407BFF" cx="10.8233356" cy="10.81" r="10.81"></circle>
                <circle id="Oval" fill="#FFFFFF" opacity="0.7" cx="10.8233356" cy="10.81" r="10.81"></circle>
                <path d="M7.10333557,2.65983378 C5.63194262,2.65178726 4.17475366,2.94799156 2.82333557,3.53 C-0.609352492,7.29344948 -0.948986265,12.9426287 2.00808189,17.0902361 C4.96515004,21.2378435 10.4164521,22.7583311 15.0933356,20.74 L15.0933356,20.74 C17.9612072,17.5708361 18.6947113,13.0104202 16.9652389,9.10181268 C15.2357666,5.19320513 11.3674679,2.66898517 7.09333557,2.65983378 L7.10333557,2.65983378 Z" id="Path" fill="#407BFF" opacity="0.2"></path>
                <path d="M6.02333557,5.51 C6.02333557,6.06228475 5.57562032,6.51 5.02333557,6.51 C4.47105082,6.51 4.02333557,6.06228475 4.02333557,5.51 C4.02333557,4.95771525 4.47105082,4.51 5.02333557,4.51 C5.57562032,4.51 6.02333557,4.95771525 6.02333557,5.51 Z" id="Path" fill="#407BFF" opacity="0.2"></path>
                <path d="M17.6333356,4.53 C17.6333356,5.08228475 17.1856203,5.53 16.6333356,5.53 C16.0810508,5.53 15.6333356,5.08228475 15.6333356,4.53 C15.6333356,3.97771525 16.0810508,3.53 16.6333356,3.53 C17.1856203,3.53 17.6333356,3.97771525 17.6333356,4.53 Z" id="Path" fill="#407BFF" opacity="0.2"></path>
                <path d="M15.6333356,11.57 C15.6333356,12.4647013 14.9080369,13.19 14.0133356,13.19 C13.1186343,13.19 12.3933356,12.4647013 12.3933356,11.57 C12.3933356,10.6752987 13.1186343,9.95 14.0133356,9.95 L14.0133356,9.95 C14.9080369,9.95 15.6333356,10.6752987 15.6333356,11.57 Z" id="Path" fill="#407BFF" opacity="0.2"></path>
                <path d="M10.533359,16.16 C10.533359,17.0336384 10.0070685,17.8212528 9.19993179,18.1555798 C8.39279511,18.4899068 7.4637406,18.3051063 6.84598493,17.6873506 C6.22822925,17.069595 6.04342882,16.1405405 6.37775578,15.3334038 C6.71208274,14.5262671 7.49969712,13.9999766 8.37333557,13.9999766 C8.94701893,13.9973254 9.49797872,14.2240373 9.90363852,14.6296971 C10.3092983,15.0353569 10.5360101,15.5863166 10.533359,16.16 L10.533359,16.16 Z" id="Path" fill="#407BFF" opacity="0.2"></path>
            </g>
            <path d="M192.323743,149.927095 C192.012684,149.862118 191.690564,149.841381 191.373974,149.837233 C191.264757,149.835851 191.154158,149.833086 191.044942,149.830321 C191.040794,149.553823 191.028352,149.277325 191.008997,149.00221 C190.973052,148.544606 190.912223,147.773178 190.375817,147.618339 C190.295633,147.594837 190.059227,148.458892 190.041255,148.545989 C189.974896,148.855666 189.955541,149.177786 189.950011,149.495758 C189.948628,149.604975 189.945863,149.714192 189.943098,149.824791 C189.681808,149.830321 189.419135,149.841381 189.159227,149.873178 C188.704389,149.927095 187.88872,149.947832 187.731117,150.49115 C187.707614,150.569952 188.570287,150.806358 188.658766,150.82433 C189.072131,150.912809 189.510379,150.918339 189.937568,150.925252 C189.943098,151.187924 189.955541,151.449215 189.987338,151.710505 C190.041255,152.163961 190.06061,152.979629 190.603928,153.137233 C190.68273,153.160735 190.919135,152.298063 190.93849,152.210966 C191.026969,151.796219 191.031117,151.359353 191.038029,150.932164 C191.315909,150.928017 191.591025,150.915574 191.867522,150.894837 C192.323743,150.860275 193.095172,150.798063 193.251393,150.261657 C193.273513,150.182855 192.409458,149.945067 192.323743,149.927095" id="Fill-57-Copy-3" fill="#D5D5FD"></path>
            <path d="M156.253858,105.649522 C155.335388,105.961311 155.725508,107.497214 156.656265,107.418883 C156.848253,107.401988 157.034098,107.31137 157.178472,107.179282 L157.279842,107.119382 C158.02322,106.531131 156.943479,105.416065 156.253858,105.649522" id="Fill-43" fill="#FFFFFF"></path>
            <path d="M199.253858,77.6495222 C198.335388,77.9613106 198.725508,79.4972144 199.656265,79.4188833 C199.848253,79.4019883 200.034098,79.31137 200.178472,79.1792823 L200.279842,79.119382 C201.02322,78.5311309 199.943479,77.4160648 199.253858,77.6495222" id="Fill-43-Copy" fill="#FFFFFF"></path>
            <path d="M212.253858,117.649522 C211.335388,117.961311 211.725508,119.497214 212.656265,119.418883 C212.848253,119.401988 213.034098,119.31137 213.178472,119.179282 L213.279842,119.119382 C214.02322,118.531131 212.943479,117.416065 212.253858,117.649522" id="Fill-43-Copy-2" fill="#FFFFFF"></path>
        </g>
    </g>
</svg>